<svg id="Layer_4" data-name="Layer 4" xmlns="http://www.w3.org/2000/svg" viewBox="0 0 412.34 208.69"><path d="M409,755.37V737.69q18.84,9.38,32.81,9.38,8.3,0,13.77-4.49A14,14,0,0,0,461,731.35q0-9.87-15.33-16.31l-11.23-4.79q-24.9-10.35-24.9-29.78,0-13.87,9.81-21.83t26.9-8a124.27,124.27,0,0,1,22,2.44l4,.79v16q-16.11-4.78-25.68-4.78-8.4,0-13.43,3.66a11.54,11.54,0,0,0-5,9.81q0,8.7,14.06,14.65l9.28,3.91q15.72,6.65,22.27,14t6.54,18.41q0,14-11,22.95t-28.22,9Q427.8,761.52,409,755.37Z" transform="translate(-408.96 -588.76)"/><path d="M537.71,761.52q-23.34,0-37-14.94t-13.62-40.53q0-25.57,13.62-40.47t37-14.9q23.34,0,37,14.9t13.63,40.47q0,25.59-13.63,40.53T537.71,761.52Zm-.05-14.45q14.34,0,22.23-10.74t7.9-30.28q0-19.53-7.9-30.22t-22.23-10.69q-14.32,0-22.18,10.69t-7.85,30.22q0,19.55,7.85,30.28T537.66,747.07Z" transform="translate(-408.96 -588.76)"/><path d="M750,755.37V737.69q18.84,9.38,32.81,9.38,8.29,0,13.77-4.49a14,14,0,0,0,5.47-11.23q0-9.87-15.33-16.31l-11.23-4.79q-24.91-10.35-24.91-29.78,0-13.87,9.82-21.83t26.9-8a124.27,124.27,0,0,1,22,2.44l4,.79v16q-16.11-4.78-25.68-4.78-8.4,0-13.43,3.66a11.51,11.51,0,0,0-5,9.81q0,8.7,14.06,14.65l9.28,3.91q15.72,6.65,22.26,14t6.55,18.41q0,14-11,22.95t-28.22,9Q768.86,761.52,750,755.37Z" transform="translate(-408.96 -588.76)"/><path d="M655.58,746.58Q642,731.64,642,706.05t13.62-40.47q13.62-14.9,37-14.9t37,14.9q13.62,14.88,13.62,40.47t-13.62,40.53q-13.62,14.94-37,14.94T655.58,746.58Zm59.2-10.25q7.85-10.74,7.84-30.28t-7.84-30.22q-7.86-10.7-22.19-10.69t-22.22,10.69q-7.9,10.7-7.9,30.22t7.9,30.28q7.89,10.74,22.22,10.74T714.78,736.33Z" transform="translate(-408.96 -588.76)"/><path d="M605.2,797.45V588.76h19.24V797.45Z" transform="translate(-408.96 -588.76)"/></svg>