<svg xmlns="http://www.w3.org/2000/svg" viewBox="0 0 713.39 418.45"><g id="Layer_2_copy_2" data-name="Layer 2 copy 2"><path d="M1335.45,559.05c-2.4-14.84,1.35-34.17.91-36.12s.53-28.86-11.32-31.26c-41.67-2.71-63.71,35.22-83.8,32.66-2.17-.52-6.15-8.84,10.35-21.88s22.41-18.51,26.61-22.56,5.7-6.44,18.51-4.27c.38-7.27-34.77-48.42-46.23-44.75a30.91,30.91,0,0,0-9.3,4.19s-48.56-37-73.52-38.46-38.83.74-77,17.75c-9.52,3.22-19.86-1.58-33.28,2.54-5.17,4.27-15.74,11.84-27.89,39.27-11.38,36,26.87,49.12,39.92,52.49,0,0-49.91-17.17-75.3-17.17s-75.31,17.17-75.31,17.17c13-3.37,51.31-16.5,39.93-52.49-12.15-27.43-22.72-35-27.89-39.27-13.42-4.12-23.76.68-33.28-2.54-38.16-17-52-19.18-77-17.75s-73.52,38.46-73.52,38.46a31.06,31.06,0,0,0-9.3-4.19c-11.47-3.67-46.61,37.48-46.24,44.75,12.82-2.17,14.32.23,18.52,4.27s10.12,9.52,26.61,22.56,12.52,21.36,10.35,21.88c-20.09,2.56-42.13-35.37-83.81-32.66-11.84,2.4-10.86,29.31-11.31,31.26s3.3,21.28.91,36.12-19.11,29.46-14.61,36.66c11.09-3.6,20.83-1.35,24.73-.46s47.45,21.21,65.37,32.52c7.87,5.92,48.57,16.33,52.24,4.87,4.42-10.27,6.74-29.24,14.38-49s16.56-22.86,16.56-22.86c15,5.51,5.18,17.61,3.61,24.43s-29.23,46.63-25.78,49.48c2.63,10.87,39.8,1,49.62-6,14.61-10,22-59.59,26.37-69.86s5.39-10,9.52-10.12,6.67,6.67,5.17,17.61-3.44,10.5-5.47,19.27,3,18.14-1,26.46-16.41,17.76-14.16,21.36,38-4.58,48.12-8.4,14.39-22.34,26-23.77,25.79-9.45,31.63-21.44,3.22-22.86,3.74-34S963,526.92,958,521.67,920.08,517,920.08,517s46.44-5.55,74-5.55,74,5.55,74,5.55-33-.6-37.92,4.64-11.4,12.89-10.88,24.06-2.1,22,3.75,34,20,20,31.62,21.44,15.89,19.94,26,23.77,45.87,12,48.12,8.4-10.2-13-14.17-21.36,1.06-17.69-1-26.46-4-8.32-5.46-19.27,1-17.68,5.17-17.61,5.1-.15,9.52,10.12,11.75,59.89,26.37,69.86c9.82,7,47,16.88,49.62,6,3.44-2.85-24.21-42.66-25.78-49.48s-11.38-18.92,3.6-24.43c0,0,8.92,3.07,16.56,22.86s10,38.76,14.39,49c3.67,11.46,44.37,1.05,52.24-4.87,17.92-11.31,61.47-31.62,65.36-32.52s13.65-3.14,24.74.46C1354.56,588.51,1337.85,573.89,1335.45,559.05ZM752.2,595.31c-3.44,10.5-13.26,17.47-17.69,14.4s-1-13.57,1.35-19.19,4.58-15,13.87-11.17C755.35,581.67,755.65,584.82,752.2,595.31Zm66.32-100.67c-9.15,4.05-18.89-11.54-26.84-21.58s-33.58-32.38-33.58-32.38,36.65,14.61,50.44,26C827.28,483.32,822.86,493.59,818.52,494.64Zm75.84-30.74s-3,21.88-14.68,19.19-7-23.16-7-23.16,5.17-22.42,15.66-19S894.36,463.9,894.36,463.9Zm214.22,19.19c-11.69,2.69-14.69-19.19-14.69-19.19s-4.49-19.49,6-22.94,15.66,19,15.66,19S1120.27,480.39,1108.58,483.09Zm88-10c-7.95,10-17.7,25.63-26.84,21.58-4.35-1.05-8.77-11.32,10-28,13.8-11.39,50.45-26,50.45-26S1204.52,463,1196.58,473.06Zm57.16,136.65c-4.42,3.07-14.24-3.9-17.68-14.4s-3.15-13.64,2.47-16c9.29-3.84,11.54,5.55,13.87,11.17S1258.16,606.64,1253.74,609.71Z" transform="translate(-637.43 -396.24)"/></g><g id="Layer_4" data-name="Layer 4"><path d="M788,772.61V754.94q18.84,9.38,32.81,9.37,8.29,0,13.77-4.49A14,14,0,0,0,840,748.59q0-9.87-15.33-16.31l-11.23-4.79q-24.9-10.35-24.9-29.78,0-13.87,9.81-21.83t26.9-8a123.47,123.47,0,0,1,22,2.45l4,.78v16q-16.11-4.78-25.68-4.78-8.4,0-13.43,3.66a11.54,11.54,0,0,0-5,9.81q0,8.7,14.06,14.65l9.28,3.91q15.72,6.65,22.27,14t6.54,18.41q0,14-11,22.95t-28.22,9Q806.81,778.76,788,772.61Z" transform="translate(-637.43 -396.24)"/><path d="M916.71,778.76q-23.34,0-37-14.94t-13.62-40.53q0-25.57,13.62-40.47t37-14.9q23.34,0,37,14.9t13.63,40.47q0,25.59-13.63,40.53T916.71,778.76Zm-.05-14.45q14.34,0,22.23-10.74t7.9-30.28q0-19.53-7.9-30.22t-22.23-10.69q-14.32,0-22.18,10.69t-7.85,30.22q0,19.55,7.85,30.28T916.66,764.31Z" transform="translate(-637.43 -396.24)"/><path d="M1129,772.61V754.94q18.84,9.38,32.81,9.37,8.29,0,13.77-4.49a14,14,0,0,0,5.47-11.23q0-9.87-15.33-16.31l-11.23-4.79q-24.91-10.35-24.91-29.78,0-13.87,9.82-21.83t26.9-8a123.47,123.47,0,0,1,22,2.45l4,.78v16q-16.11-4.78-25.68-4.78-8.4,0-13.43,3.66a11.51,11.51,0,0,0-5,9.81q0,8.7,14.06,14.65l9.28,3.91q15.72,6.65,22.26,14t6.55,18.41q0,14-11,22.95t-28.22,9Q1147.86,778.76,1129,772.61Z" transform="translate(-637.43 -396.24)"/><path d="M1034.58,763.82Q1021,748.88,1021,723.29t13.62-40.47q13.62-14.9,37-14.9t37,14.9q13.62,14.88,13.62,40.47t-13.62,40.53q-13.62,14.94-37,14.94T1034.58,763.82Zm59.2-10.25q7.85-10.74,7.84-30.28t-7.84-30.22q-7.86-10.7-22.19-10.69t-22.22,10.69q-7.9,10.7-7.9,30.22t7.9,30.28q7.89,10.74,22.22,10.74T1093.78,753.57Z" transform="translate(-637.43 -396.24)"/><path d="M984.2,814.69V606h19.24V814.69Z" transform="translate(-637.43 -396.24)"/></g></svg>