<svg id="Layer_2_copy_2" data-name="Layer 2 copy 2" xmlns="http://www.w3.org/2000/svg" viewBox="0 0 713.39 243.25"><path d="M954.45,546.29c-2.4-14.84,1.35-34.17.91-36.12s.53-28.86-11.32-31.26c-41.67-2.71-63.71,35.22-83.8,32.66-2.17-.52-6.15-8.84,10.35-21.88S893,471.18,897.2,467.13s5.7-6.44,18.51-4.27c.38-7.27-34.77-48.42-46.23-44.75a30.81,30.81,0,0,0-9.3,4.2s-48.56-37-73.52-38.47-38.83.74-77,17.75c-9.52,3.22-19.86-1.58-33.28,2.54-5.17,4.28-15.74,11.84-27.89,39.27-11.38,36,26.87,49.12,39.92,52.49,0,0-49.91-17.17-75.3-17.17s-75.31,17.17-75.31,17.17c13-3.37,51.31-16.5,39.93-52.49-12.15-27.43-22.72-35-27.89-39.27-13.42-4.12-23.76.68-33.28-2.54-38.16-17-52-19.18-77-17.75s-73.52,38.47-73.52,38.47a31,31,0,0,0-9.3-4.2c-11.47-3.67-46.61,37.48-46.24,44.75,12.82-2.17,14.32.23,18.52,4.27s10.12,9.52,26.61,22.56,12.52,21.36,10.35,21.88c-20.09,2.56-42.13-35.37-83.81-32.66-11.84,2.4-10.86,29.31-11.31,31.26s3.3,21.28.91,36.12S252.7,575.75,257.2,583c11.09-3.6,20.83-1.35,24.73-.46S329.38,603.7,347.3,615c7.87,5.92,48.57,16.33,52.24,4.87,4.42-10.27,6.74-29.24,14.38-49S430.48,548,430.48,548c15,5.51,5.18,17.61,3.61,24.43s-29.23,46.63-25.78,49.48c2.63,10.87,39.8,1,49.62-6,14.61-10,21.95-59.59,26.37-69.86s5.39-10,9.52-10.12,6.67,6.67,5.17,17.61-3.44,10.5-5.47,19.27,3,18.14-1,26.46S476.14,617,478.39,620.61s38-4.58,48.12-8.4,14.39-22.34,26-23.77S578.3,579,584.14,567s3.22-22.86,3.74-34S582,514.16,577,508.91s-37.93-4.64-37.93-4.64,46.44-5.55,74-5.55,74,5.55,74,5.55-33-.6-37.92,4.64S637.85,521.8,638.37,533s-2.1,22,3.75,34,20,20,31.62,21.44,15.89,19.94,26,23.77,45.87,12,48.12,8.4-10.2-13-14.17-21.36,1.06-17.69-1-26.46-4-8.32-5.46-19.27,1.05-17.68,5.17-17.61,5.1-.15,9.52,10.12,11.75,59.89,26.37,69.86c9.82,7,47,16.88,49.62,6,3.44-2.85-24.21-42.65-25.78-49.48s-11.38-18.92,3.6-24.43c0,0,8.92,3.08,16.56,22.86s10,38.76,14.39,49c3.67,11.46,44.37,1,52.24-4.87,17.92-11.31,61.47-31.62,65.36-32.52s13.65-3.14,24.74.46C973.56,575.75,956.85,561.14,954.45,546.29ZM371.2,582.55c-3.44,10.5-13.26,17.47-17.69,14.4s-1-13.57,1.35-19.19,4.58-15,13.87-11.17C374.35,568.91,374.65,572.06,371.2,582.55Zm66.32-100.67c-9.15,4.05-18.89-11.54-26.84-21.58s-33.58-32.38-33.58-32.38,36.65,14.61,50.44,26C446.28,470.56,441.86,480.83,437.52,481.88Zm75.84-30.74s-3,21.88-14.68,19.19-7-23.16-7-23.16,5.17-22.41,15.66-19S513.36,451.14,513.36,451.14Zm214.22,19.19c-11.69,2.69-14.69-19.19-14.69-19.19s-4.49-19.49,6-22.94,15.66,19,15.66,19S739.27,467.63,727.58,470.33Zm88-10c-8,10-17.7,25.63-26.84,21.58-4.35-1.05-8.77-11.32,10-28,13.8-11.39,50.45-26,50.45-26S823.52,450.26,815.58,460.3ZM872.74,597c-4.42,3.07-14.24-3.9-17.68-14.4s-3.15-13.64,2.47-16c9.29-3.84,11.54,5.55,13.87,11.17S877.16,593.88,872.74,597Z" transform="translate(-256.43 -383.48)"/></svg>