<svg id="Layer_5" data-name="Layer 5" xmlns="http://www.w3.org/2000/svg" viewBox="0 0 1561 492.35"><path d="M1699,916V535.1c-.6.42,7-147.1-155-103.1,0,0,59,42,28,77-8.34,9.42-18.35,23.82-28.52,31.07C1549.67,485.89,1512.88,397,1390,432c0,0,59,42,28,77-9.54,10.77-21.26,26.21-32.92,34.13,8-54-27.86-146.79-153.08-111.13,0,0,59,42,28,77-9.24,10.43-20.52,25.62-31.81,33.37C1235.7,488.28,1199.64,396.51,1075,432c0,0,59,42,28,77a169.89,169.89,0,0,1-28.52,25.07C1080.67,479.89,1043.88,397,921,432c0,0,59,42,28,77-9.24,10.43-20.52,19.62-31.81,27.37C924.7,482.28,888.64,396.51,764,432c0,0,59,42,28,77a166.39,166.39,0,0,1-26.36,23.51C771,478.32,733.7,397.34,612,432c0,0,59,42,28,77-9.24,10.43-20.52,19.62-31.81,27.37C615.7,482.28,579.64,396.51,455,432c0,0,59,42,28,77a169.89,169.89,0,0,1-28.52,25.07C460.67,479.89,423.88,397,301,432c0,0,59,42,28,77-9.24,10.43-20.52,19.62-31.81,27.37C304.7,482.28,268.64,396.51,144,432c0,0,59,42,28,77-9.83,11.1-22,20.8-34,28.86v37.2l1,.16V916Z" transform="translate(-138 -423.65)"/></svg>